<svg xmlns="http://www.w3.org/2000/svg" xmlns:xlink="http://www.w3.org/1999/xlink" width="500" zoomAndPan="magnify" viewBox="0 0 375 374.999991" height="500" preserveAspectRatio="xMidYMid meet" version="1.0"><defs><g/><clipPath id="bed3575da0"><path d="M 95 142 L 281 142 L 281 250 L 95 250 Z M 95 142 " clip-rule="nonzero"/></clipPath><clipPath id="e09f3c0794"><path d="M 125.695312 93.382812 L 292.933594 157.894531 L 249.480469 270.550781 L 82.238281 206.042969 Z M 125.695312 93.382812 " clip-rule="nonzero"/></clipPath><clipPath id="0bf53e15a8"><path d="M 125.695312 93.382812 L 292.933594 157.894531 L 249.480469 270.550781 L 82.238281 206.042969 Z M 125.695312 93.382812 " clip-rule="nonzero"/></clipPath><clipPath id="a9bd07c183"><path d="M 278.855469 183.535156 C 283.011719 169.410156 275.910156 154.136719 262.503906 148.128906 C 252.148438 143.453125 240.691406 145.1875 232.347656 151.464844 C 228.183594 154.570312 222.429688 154.324219 218.386719 151.019531 C 215.273438 148.449219 211.628906 146.285156 207.660156 144.753906 C 196.019531 140.261719 183.546875 141.679688 173.507812 147.609375 C 167.695312 151.066406 160.476562 150.867188 154.644531 147.476562 C 152.109375 145.96875 149.316406 144.738281 146.398438 143.839844 C 127.460938 137.980469 106.9375 147.460938 99.027344 165.605469 C 90.015625 186.214844 100.089844 209.929688 120.855469 217.9375 C 129.453125 221.253906 138.46875 221.3125 146.574219 218.816406 C 154.769531 216.28125 163.53125 219.964844 167.417969 227.617188 C 171.960938 236.511719 179.882812 243.746094 190.273438 247.144531 C 209.371094 253.371094 230.433594 243.871094 238.382812 225.433594 C 239.289062 223.277344 240.015625 221.203125 240.566406 218.984375 C 242.371094 211.550781 248.195312 205.898438 255.734375 204.476562 C 266.28125 202.539062 275.546875 194.871094 278.855469 183.535156 Z M 278.855469 183.535156 " clip-rule="nonzero"/></clipPath><clipPath id="2ccf7e4b58"><path d="M 151 127 L 169 127 L 169 145 L 151 145 Z M 151 127 " clip-rule="nonzero"/></clipPath><clipPath id="14f917ed7b"><path d="M 125.695312 93.382812 L 292.933594 157.894531 L 249.480469 270.550781 L 82.238281 206.042969 Z M 125.695312 93.382812 " clip-rule="nonzero"/></clipPath><clipPath id="ed05055566"><path d="M 125.695312 93.382812 L 292.933594 157.894531 L 249.480469 270.550781 L 82.238281 206.042969 Z M 125.695312 93.382812 " clip-rule="nonzero"/></clipPath><clipPath id="3aff8091d2"><path d="M 167.695312 139.441406 C 167.496094 139.960938 167.246094 140.453125 166.953125 140.917969 C 166.65625 141.386719 166.316406 141.820312 165.933594 142.222656 C 165.550781 142.625 165.136719 142.984375 164.683594 143.304688 C 164.230469 143.621094 163.75 143.894531 163.242188 144.117188 C 162.738281 144.34375 162.214844 144.515625 161.671875 144.636719 C 161.132812 144.757812 160.585938 144.824219 160.03125 144.839844 C 159.476562 144.851562 158.929688 144.8125 158.382812 144.71875 C 157.835938 144.625 157.304688 144.476562 156.789062 144.277344 C 156.273438 144.078125 155.78125 143.828125 155.3125 143.535156 C 154.84375 143.238281 154.410156 142.898438 154.007812 142.515625 C 153.609375 142.132812 153.246094 141.714844 152.929688 141.265625 C 152.609375 140.8125 152.339844 140.332031 152.113281 139.824219 C 151.890625 139.320312 151.714844 138.796875 151.59375 138.253906 C 151.472656 137.714844 151.40625 137.167969 151.390625 136.613281 C 151.378906 136.058594 151.417969 135.511719 151.515625 134.964844 C 151.609375 134.417969 151.753906 133.886719 151.953125 133.371094 C 152.15625 132.855469 152.402344 132.363281 152.699219 131.894531 C 152.996094 131.425781 153.332031 130.992188 153.714844 130.589844 C 154.097656 130.1875 154.515625 129.828125 154.96875 129.511719 C 155.421875 129.191406 155.898438 128.917969 156.40625 128.695312 C 156.914062 128.472656 157.4375 128.296875 157.976562 128.175781 C 158.515625 128.054688 159.0625 127.988281 159.617188 127.972656 C 160.171875 127.960938 160.722656 128 161.265625 128.097656 C 161.8125 128.191406 162.34375 128.335938 162.859375 128.535156 C 163.378906 128.734375 163.871094 128.984375 164.335938 129.28125 C 164.804688 129.578125 165.238281 129.914062 165.640625 130.296875 C 166.042969 130.679688 166.402344 131.097656 166.722656 131.550781 C 167.039062 132.003906 167.3125 132.480469 167.535156 132.988281 C 167.761719 133.496094 167.933594 134.019531 168.054688 134.558594 C 168.175781 135.097656 168.242188 135.644531 168.257812 136.199219 C 168.269531 136.753906 168.230469 137.304688 168.136719 137.847656 C 168.042969 138.394531 167.894531 138.925781 167.695312 139.441406 Z M 167.695312 139.441406 " clip-rule="nonzero"/></clipPath><clipPath id="5033baf631"><path d="M 205 126 L 216 126 L 216 137 L 205 137 Z M 205 126 " clip-rule="nonzero"/></clipPath><clipPath id="31eabae933"><path d="M 125.695312 93.382812 L 292.933594 157.894531 L 249.480469 270.550781 L 82.238281 206.042969 Z M 125.695312 93.382812 " clip-rule="nonzero"/></clipPath><clipPath id="0cea5a52d0"><path d="M 125.695312 93.382812 L 292.933594 157.894531 L 249.480469 270.550781 L 82.238281 206.042969 Z M 125.695312 93.382812 " clip-rule="nonzero"/></clipPath><clipPath id="a0451bd56e"><path d="M 215.65625 133.476562 C 215.535156 133.785156 215.390625 134.082031 215.210938 134.359375 C 215.035156 134.640625 214.832031 134.898438 214.605469 135.136719 C 214.378906 135.375 214.128906 135.589844 213.859375 135.78125 C 213.585938 135.972656 213.300781 136.132812 213 136.269531 C 212.699219 136.402344 212.386719 136.503906 212.0625 136.578125 C 211.742188 136.648438 211.414062 136.691406 211.082031 136.699219 C 210.753906 136.707031 210.425781 136.683594 210.101562 136.625 C 209.773438 136.570312 209.457031 136.480469 209.148438 136.363281 C 208.839844 136.242188 208.546875 136.097656 208.269531 135.917969 C 207.988281 135.742188 207.730469 135.539062 207.488281 135.3125 C 207.25 135.085938 207.035156 134.835938 206.84375 134.566406 C 206.65625 134.296875 206.492188 134.007812 206.359375 133.707031 C 206.226562 133.40625 206.121094 133.09375 206.050781 132.769531 C 205.976562 132.449219 205.9375 132.121094 205.929688 131.789062 C 205.921875 131.460938 205.945312 131.132812 206 130.808594 C 206.058594 130.480469 206.144531 130.164062 206.265625 129.855469 C 206.382812 129.546875 206.53125 129.253906 206.707031 128.976562 C 206.886719 128.695312 207.085938 128.4375 207.316406 128.195312 C 207.542969 127.957031 207.792969 127.742188 208.0625 127.550781 C 208.332031 127.363281 208.617188 127.199219 208.921875 127.066406 C 209.222656 126.933594 209.535156 126.828125 209.855469 126.757812 C 210.179688 126.683594 210.507812 126.644531 210.835938 126.636719 C 211.167969 126.628906 211.496094 126.652344 211.820312 126.707031 C 212.144531 126.765625 212.464844 126.851562 212.769531 126.972656 C 213.078125 127.089844 213.375 127.238281 213.652344 127.414062 C 213.933594 127.59375 214.191406 127.792969 214.429688 128.023438 C 214.667969 128.25 214.882812 128.5 215.074219 128.769531 C 215.265625 129.039062 215.425781 129.324219 215.5625 129.628906 C 215.695312 129.929688 215.796875 130.242188 215.871094 130.566406 C 215.941406 130.886719 215.984375 131.214844 215.992188 131.542969 C 216 131.875 215.976562 132.203125 215.917969 132.527344 C 215.863281 132.851562 215.773438 133.171875 215.65625 133.476562 Z M 215.65625 133.476562 " clip-rule="nonzero"/></clipPath><clipPath id="cd9547f804"><path d="M 250 215 L 267 215 L 267 232 L 250 232 Z M 250 215 " clip-rule="nonzero"/></clipPath><clipPath id="21c5341095"><path d="M 125.695312 93.382812 L 292.933594 157.894531 L 249.480469 270.550781 L 82.238281 206.042969 Z M 125.695312 93.382812 " clip-rule="nonzero"/></clipPath><clipPath id="44861ca231"><path d="M 125.695312 93.382812 L 292.933594 157.894531 L 249.480469 270.550781 L 82.238281 206.042969 Z M 125.695312 93.382812 " clip-rule="nonzero"/></clipPath><clipPath id="541f17e7df"><path d="M 266.308594 226.105469 C 266.121094 226.589844 265.890625 227.054688 265.609375 227.492188 C 265.332031 227.933594 265.011719 228.34375 264.652344 228.71875 C 264.292969 229.097656 263.902344 229.4375 263.472656 229.738281 C 263.046875 230.039062 262.597656 230.292969 262.121094 230.503906 C 261.644531 230.714844 261.152344 230.878906 260.640625 230.992188 C 260.132812 231.105469 259.617188 231.171875 259.097656 231.183594 C 258.578125 231.195312 258.058594 231.15625 257.546875 231.070312 C 257.03125 230.980469 256.53125 230.839844 256.046875 230.652344 C 255.558594 230.464844 255.097656 230.234375 254.65625 229.953125 C 254.214844 229.675781 253.804688 229.355469 253.429688 228.996094 C 253.050781 228.636719 252.710938 228.242188 252.414062 227.816406 C 252.113281 227.390625 251.855469 226.941406 251.644531 226.464844 C 251.433594 225.988281 251.269531 225.496094 251.15625 224.984375 C 251.042969 224.476562 250.980469 223.960938 250.964844 223.441406 C 250.953125 222.921875 250.992188 222.402344 251.082031 221.890625 C 251.171875 221.375 251.308594 220.875 251.496094 220.390625 C 251.683594 219.902344 251.917969 219.441406 252.195312 219 C 252.472656 218.558594 252.792969 218.148438 253.152344 217.773438 C 253.511719 217.394531 253.90625 217.054688 254.332031 216.753906 C 254.757812 216.457031 255.210938 216.199219 255.6875 215.988281 C 256.164062 215.777344 256.65625 215.613281 257.164062 215.5 C 257.671875 215.386719 258.1875 215.324219 258.707031 215.308594 C 259.230469 215.296875 259.746094 215.335938 260.261719 215.425781 C 260.773438 215.511719 261.273438 215.652344 261.761719 215.839844 C 262.246094 216.027344 262.710938 216.261719 263.148438 216.539062 C 263.589844 216.816406 264 217.136719 264.378906 217.496094 C 264.753906 217.855469 265.09375 218.25 265.394531 218.675781 C 265.695312 219.101562 265.949219 219.550781 266.160156 220.027344 C 266.371094 220.503906 266.535156 221 266.648438 221.507812 C 266.761719 222.015625 266.828125 222.53125 266.839844 223.050781 C 266.851562 223.574219 266.8125 224.089844 266.726562 224.605469 C 266.636719 225.117188 266.496094 225.617188 266.308594 226.105469 Z M 266.308594 226.105469 " clip-rule="nonzero"/></clipPath></defs><g clip-path="url(#bed3575da0)"><g clip-path="url(#e09f3c0794)"><g clip-path="url(#0bf53e15a8)"><g clip-path="url(#a9bd07c183)"><path fill="#fcfdf2" d="M 115.011719 73.175781 L 51.269531 238.425781 L 258.015625 318.171875 L 321.757812 152.921875 Z M 115.011719 73.175781 " fill-opacity="1" fill-rule="nonzero"/></g></g></g></g><g clip-path="url(#2ccf7e4b58)"><g clip-path="url(#14f917ed7b)"><g clip-path="url(#ed05055566)"><g clip-path="url(#3aff8091d2)"><path fill="#fcfdf2" d="M 153.566406 122.289062 L 145.707031 142.664062 L 166.082031 150.523438 L 173.941406 130.148438 Z M 153.566406 122.289062 " fill-opacity="1" fill-rule="nonzero"/></g></g></g></g><g clip-path="url(#5033baf631)"><g clip-path="url(#31eabae933)"><g clip-path="url(#0cea5a52d0)"><g clip-path="url(#a0451bd56e)"><path fill="#fcfdf2" d="M 207.226562 123.242188 L 202.535156 135.402344 L 214.695312 140.089844 L 219.382812 127.933594 Z M 207.226562 123.242188 " fill-opacity="1" fill-rule="nonzero"/></g></g></g></g><g clip-path="url(#cd9547f804)"><g clip-path="url(#21c5341095)"><g clip-path="url(#44861ca231)"><g clip-path="url(#541f17e7df)"><path fill="#fcfdf2" d="M 253.011719 209.957031 L 245.617188 229.136719 L 264.792969 236.535156 L 272.191406 217.355469 Z M 253.011719 209.957031 " fill-opacity="1" fill-rule="nonzero"/></g></g></g></g><g fill="#4b5ae4" fill-opacity="1"><g transform="translate(108.202387, 210.516688)"><g><path d="M 7.4375 -2.9375 C 5.800781 -2.289062 4.4375 -1.976562 3.34375 -2 C 2.25 -2.019531 1.359375 -2.253906 0.671875 -2.703125 C -0.015625 -3.148438 -0.554688 -3.707031 -0.953125 -4.375 C -1.347656 -5.039062 -1.671875 -5.6875 -1.921875 -6.3125 C -2.335938 -7.363281 -2.644531 -8.519531 -2.84375 -9.78125 C -3.039062 -11.050781 -3.222656 -12.335938 -3.390625 -13.640625 C -3.566406 -14.941406 -3.800781 -16.160156 -4.09375 -17.296875 C -4.40625 -18.535156 -4.847656 -19.765625 -5.421875 -20.984375 C -5.992188 -22.203125 -6.578125 -23.363281 -7.171875 -24.46875 C -7.378906 -24.914062 -7.703125 -25.546875 -8.140625 -26.359375 C -8.585938 -27.171875 -8.992188 -28.0625 -9.359375 -29.03125 C -9.722656 -30.007812 -9.984375 -30.988281 -10.140625 -31.96875 C -10.304688 -32.957031 -10.242188 -33.835938 -9.953125 -34.609375 C -9.671875 -35.390625 -9.054688 -35.96875 -8.109375 -36.34375 C -7.515625 -36.582031 -6.863281 -36.695312 -6.15625 -36.6875 C -5.457031 -36.675781 -5.03125 -36.703125 -4.875 -36.765625 C -4.6875 -36.890625 -4.472656 -37.0625 -4.234375 -37.28125 C -4.003906 -37.5 -3.609375 -37.785156 -3.046875 -38.140625 C -2.484375 -38.503906 -1.609375 -38.921875 -0.421875 -39.390625 C 0.703125 -39.835938 1.941406 -40.09375 3.296875 -40.15625 C 4.648438 -40.21875 6.03125 -39.984375 7.4375 -39.453125 C 8.84375 -38.921875 10.148438 -37.960938 11.359375 -36.578125 C 12.578125 -35.203125 13.601562 -33.269531 14.4375 -30.78125 C 15.007812 -29.039062 15.203125 -27.351562 15.015625 -25.71875 C 14.828125 -24.082031 14.019531 -22.660156 12.59375 -21.453125 C 13.6875 -21.578125 14.910156 -21.554688 16.265625 -21.390625 C 17.617188 -21.234375 18.96875 -20.890625 20.3125 -20.359375 C 21.664062 -19.828125 22.863281 -19.054688 23.90625 -18.046875 C 24.957031 -17.035156 25.710938 -15.769531 26.171875 -14.25 C 26.503906 -13.125 26.441406 -12.191406 25.984375 -11.453125 C 25.535156 -10.722656 24.910156 -10.140625 24.109375 -9.703125 C 23.304688 -9.273438 22.578125 -8.929688 21.921875 -8.671875 C 20.679688 -8.179688 19.644531 -7.953125 18.8125 -7.984375 C 17.976562 -8.023438 17.296875 -8.234375 16.765625 -8.609375 C 16.234375 -8.992188 15.769531 -9.445312 15.375 -9.96875 C 14.8125 -10.726562 14.070312 -11.582031 13.15625 -12.53125 C 12.25 -13.476562 11.304688 -14.382812 10.328125 -15.25 C 9.359375 -16.125 8.492188 -16.820312 7.734375 -17.34375 C 6.984375 -17.863281 6.476562 -18.070312 6.21875 -17.96875 C 6.082031 -17.914062 6.023438 -17.816406 6.046875 -17.671875 C 6.054688 -17.265625 6.28125 -16.867188 6.71875 -16.484375 C 7.15625 -16.109375 7.695312 -15.675781 8.34375 -15.1875 C 8.988281 -14.695312 9.632812 -14.113281 10.28125 -13.4375 C 10.925781 -12.769531 11.453125 -11.925781 11.859375 -10.90625 C 12.265625 -10.007812 12.429688 -9.070312 12.359375 -8.09375 C 12.285156 -7.113281 11.875 -6.179688 11.125 -5.296875 C 10.382812 -4.410156 9.15625 -3.625 7.4375 -2.9375 Z M 1.40625 -34.75 C 0.988281 -34.550781 0.769531 -34.140625 0.75 -33.515625 C 0.726562 -32.898438 0.847656 -32.21875 1.109375 -31.46875 C 1.367188 -30.726562 1.726562 -30.03125 2.1875 -29.375 C 2.65625 -28.71875 3.171875 -28.210938 3.734375 -27.859375 C 4.296875 -27.515625 4.835938 -27.445312 5.359375 -27.65625 C 5.492188 -27.707031 5.597656 -27.769531 5.671875 -27.84375 C 6.429688 -28.332031 6.738281 -29.023438 6.59375 -29.921875 C 6.457031 -30.816406 6.085938 -31.675781 5.484375 -32.5 C 4.910156 -33.257812 4.242188 -33.882812 3.484375 -34.375 C 2.722656 -34.875 2.0625 -35.015625 1.5 -34.796875 C 1.46875 -34.773438 1.453125 -34.765625 1.453125 -34.765625 C 1.453125 -34.765625 1.4375 -34.757812 1.40625 -34.75 Z M 1.40625 -34.75 "/></g></g></g><g fill="#4b5ae4" fill-opacity="1"><g transform="translate(133.430868, 200.529392)"><g><path d="M -0.109375 -8.71875 C -0.535156 -10.664062 -0.703125 -12.546875 -0.609375 -14.359375 C -0.523438 -16.171875 -0.378906 -17.929688 -0.171875 -19.640625 C 0.0351562 -21.347656 0.175781 -22.984375 0.25 -24.546875 C 0.320312 -26.117188 0.148438 -27.628906 -0.265625 -29.078125 C -0.640625 -30.472656 -0.785156 -31.765625 -0.703125 -32.953125 C -0.617188 -34.148438 -0.28125 -35.128906 0.3125 -35.890625 C 0.90625 -36.660156 1.707031 -37.085938 2.71875 -37.171875 C 3.101562 -37.210938 3.5625 -37.175781 4.09375 -37.0625 C 4.625 -36.957031 5.132812 -36.644531 5.625 -36.125 C 6.113281 -35.601562 6.476562 -34.75 6.71875 -33.5625 C 6.96875 -32.476562 7.160156 -31.242188 7.296875 -29.859375 C 7.441406 -28.472656 7.597656 -27.078125 7.765625 -25.671875 C 7.929688 -24.265625 8.128906 -22.96875 8.359375 -21.78125 C 8.597656 -20.601562 8.910156 -19.660156 9.296875 -18.953125 C 9.679688 -18.242188 10.171875 -17.914062 10.765625 -17.96875 C 11.535156 -18.039062 12.054688 -18.59375 12.328125 -19.625 C 12.609375 -20.65625 12.738281 -21.957031 12.71875 -23.53125 C 12.707031 -25.101562 12.601562 -26.757812 12.40625 -28.5 C 12.207031 -30.25 12.023438 -31.859375 11.859375 -33.328125 C 11.796875 -34.066406 11.816406 -34.796875 11.921875 -35.515625 C 12.035156 -36.234375 12.328125 -36.851562 12.796875 -37.375 C 13.265625 -37.894531 13.953125 -38.195312 14.859375 -38.28125 C 15.816406 -38.375 16.582031 -38.066406 17.15625 -37.359375 C 17.726562 -36.648438 18.160156 -35.757812 18.453125 -34.6875 C 18.753906 -33.613281 18.976562 -32.550781 19.125 -31.5 C 19.28125 -30.445312 19.40625 -29.601562 19.5 -28.96875 C 19.894531 -26.488281 20.390625 -24.160156 20.984375 -21.984375 C 21.578125 -19.804688 22.019531 -17.65625 22.3125 -15.53125 C 22.613281 -13.40625 22.554688 -11.171875 22.140625 -8.828125 C 21.828125 -7.140625 21.296875 -5.796875 20.546875 -4.796875 C 19.804688 -3.804688 18.972656 -3.054688 18.046875 -2.546875 C 17.117188 -2.035156 16.191406 -1.691406 15.265625 -1.515625 C 14.335938 -1.347656 13.5625 -1.238281 12.9375 -1.1875 L 10.234375 -0.9375 C 9.046875 -0.820312 7.726562 -0.972656 6.28125 -1.390625 C 4.84375 -1.816406 3.535156 -2.613281 2.359375 -3.78125 C 1.191406 -4.945312 0.367188 -6.59375 -0.109375 -8.71875 Z M -0.109375 -8.71875 "/></g></g></g><g fill="#4b5ae4" fill-opacity="1"><g transform="translate(154.567896, 197.720008)"><g><path d="M 7.390625 1.46875 C 6.378906 1.269531 5.359375 0.851562 4.328125 0.21875 C 3.304688 -0.40625 2.519531 -1.234375 1.96875 -2.265625 C 1.425781 -3.296875 1.34375 -4.507812 1.71875 -5.90625 C 2.164062 -7.445312 2.738281 -8.96875 3.4375 -10.46875 C 4.132812 -11.96875 4.890625 -13.660156 5.703125 -15.546875 C 6.515625 -17.441406 7.273438 -19.726562 7.984375 -22.40625 C 8.398438 -23.90625 8.734375 -25.421875 8.984375 -26.953125 C 9.234375 -28.492188 9.5 -29.890625 9.78125 -31.140625 C 10.070312 -32.398438 10.472656 -33.382812 10.984375 -34.09375 C 11.503906 -34.800781 12.234375 -35.0625 13.171875 -34.875 C 14.460938 -34.613281 15.648438 -34.023438 16.734375 -33.109375 C 17.828125 -32.191406 18.804688 -31.101562 19.671875 -29.84375 C 20.546875 -28.59375 21.300781 -27.351562 21.9375 -26.125 C 22.582031 -24.894531 23.097656 -23.847656 23.484375 -22.984375 C 23.867188 -22.117188 24.113281 -21.582031 24.21875 -21.375 C 24.5625 -20.757812 24.832031 -20.429688 25.03125 -20.390625 C 25.351562 -20.328125 25.695312 -20.914062 26.0625 -22.15625 C 26.4375 -23.40625 26.960938 -25.726562 27.640625 -29.125 C 28.003906 -30.957031 29.054688 -31.695312 30.796875 -31.34375 C 31.078125 -31.289062 31.421875 -31.171875 31.828125 -30.984375 C 32.242188 -30.796875 32.601562 -30.472656 32.90625 -30.015625 C 33.21875 -29.554688 33.300781 -28.890625 33.15625 -28.015625 C 32.644531 -24.148438 32.296875 -20.847656 32.109375 -18.109375 C 31.929688 -15.378906 31.800781 -12.988281 31.71875 -10.9375 C 31.644531 -8.882812 31.546875 -6.984375 31.421875 -5.234375 C 31.296875 -3.492188 31.003906 -1.679688 30.546875 0.203125 C 30.203125 1.753906 29.4375 2.988281 28.25 3.90625 C 27.0625 4.820312 25.507812 5.09375 23.59375 4.71875 C 21.175781 4.226562 19.523438 3.207031 18.640625 1.65625 C 17.765625 0.113281 17.59375 -1.644531 18.125 -3.625 C 18.78125 -5.988281 19.070312 -8.304688 19 -10.578125 C 18.9375 -12.859375 18.675781 -14.9375 18.21875 -16.8125 C 17.757812 -18.695312 17.25 -20.207031 16.6875 -21.34375 C 16.125 -22.476562 15.671875 -23.078125 15.328125 -23.140625 C 14.878906 -23.203125 14.550781 -23 14.34375 -22.53125 C 14.132812 -22.070312 14.019531 -21.484375 14 -20.765625 C 13.988281 -20.046875 14.003906 -19.335938 14.046875 -18.640625 C 14.085938 -17.953125 14.109375 -17.425781 14.109375 -17.0625 C 14.160156 -15.726562 14.316406 -14.359375 14.578125 -12.953125 C 14.835938 -11.546875 15.101562 -10.160156 15.375 -8.796875 C 15.644531 -7.429688 15.785156 -6.097656 15.796875 -4.796875 C 15.804688 -3.503906 15.570312 -2.285156 15.09375 -1.140625 C 14.875 -0.578125 14.492188 -0.0234375 13.953125 0.515625 C 13.410156 1.066406 12.617188 1.453125 11.578125 1.671875 C 10.546875 1.890625 9.148438 1.820312 7.390625 1.46875 Z M 7.390625 1.46875 "/></g></g></g><g fill="#4b5ae4" fill-opacity="1"><g transform="translate(185.910723, 205.200003)"><g><path d="M 7.515625 0.578125 C 6.484375 0.503906 5.414062 0.210938 4.3125 -0.296875 C 3.21875 -0.804688 2.335938 -1.535156 1.671875 -2.484375 C 1.015625 -3.441406 0.789062 -4.640625 1 -6.078125 C 1.257812 -7.648438 1.644531 -9.222656 2.15625 -10.796875 C 2.675781 -12.378906 3.222656 -14.15625 3.796875 -16.125 C 4.378906 -18.09375 4.863281 -20.445312 5.25 -23.1875 C 5.476562 -24.726562 5.625 -26.273438 5.6875 -27.828125 C 5.757812 -29.390625 5.863281 -30.804688 6 -32.078125 C 6.132812 -33.359375 6.414062 -34.382812 6.84375 -35.15625 C 7.28125 -35.925781 7.976562 -36.273438 8.9375 -36.203125 C 10.238281 -36.097656 11.484375 -35.648438 12.671875 -34.859375 C 13.867188 -34.078125 14.972656 -33.113281 15.984375 -31.96875 C 16.992188 -30.832031 17.890625 -29.691406 18.671875 -28.546875 C 19.453125 -27.410156 20.082031 -26.429688 20.5625 -25.609375 C 21.050781 -24.796875 21.363281 -24.296875 21.5 -24.109375 C 21.914062 -23.546875 22.226562 -23.253906 22.4375 -23.234375 C 22.757812 -23.210938 23.03125 -23.835938 23.25 -25.109375 C 23.46875 -26.390625 23.710938 -28.753906 23.984375 -32.203125 C 24.128906 -34.078125 25.082031 -34.945312 26.84375 -34.8125 C 27.125 -34.78125 27.476562 -34.695312 27.90625 -34.5625 C 28.34375 -34.425781 28.738281 -34.144531 29.09375 -33.71875 C 29.457031 -33.300781 29.625 -32.648438 29.59375 -31.765625 C 29.539062 -27.878906 29.582031 -24.566406 29.71875 -21.828125 C 29.851562 -19.085938 30.007812 -16.691406 30.1875 -14.640625 C 30.363281 -12.585938 30.488281 -10.6875 30.5625 -8.9375 C 30.644531 -7.195312 30.578125 -5.363281 30.359375 -3.4375 C 30.191406 -1.84375 29.570312 -0.523438 28.5 0.515625 C 27.4375 1.566406 25.929688 2.015625 23.984375 1.859375 C 21.523438 1.671875 19.765625 0.863281 18.703125 -0.5625 C 17.648438 -1.988281 17.269531 -3.722656 17.5625 -5.765625 C 17.925781 -8.179688 17.941406 -10.519531 17.609375 -12.78125 C 17.273438 -15.039062 16.769531 -17.070312 16.09375 -18.875 C 15.414062 -20.6875 14.726562 -22.117188 14.03125 -23.171875 C 13.34375 -24.234375 12.820312 -24.78125 12.46875 -24.8125 C 12 -24.8125 11.691406 -24.566406 11.546875 -24.078125 C 11.398438 -23.597656 11.359375 -23 11.421875 -22.28125 C 11.492188 -21.570312 11.59375 -20.875 11.71875 -20.1875 C 11.84375 -19.5 11.929688 -18.976562 11.984375 -18.625 C 12.191406 -17.3125 12.507812 -15.96875 12.9375 -14.59375 C 13.363281 -13.226562 13.789062 -11.882812 14.21875 -10.5625 C 14.644531 -9.238281 14.941406 -7.929688 15.109375 -6.640625 C 15.273438 -5.359375 15.1875 -4.125 14.84375 -2.9375 C 14.695312 -2.34375 14.382812 -1.742188 13.90625 -1.140625 C 13.425781 -0.546875 12.6875 -0.078125 11.6875 0.265625 C 10.695312 0.617188 9.304688 0.722656 7.515625 0.578125 Z M 7.515625 0.578125 "/></g></g></g><g fill="#4b5ae4" fill-opacity="1"><g transform="translate(219.02774, 207.438119)"><g><path d="M 7.90625 -1.234375 C 6.164062 -0.960938 4.757812 -0.957031 3.6875 -1.21875 C 2.625 -1.476562 1.804688 -1.898438 1.234375 -2.484375 C 0.660156 -3.078125 0.253906 -3.738281 0.015625 -4.46875 C -0.210938 -5.207031 -0.378906 -5.910156 -0.484375 -6.578125 C -0.660156 -7.691406 -0.707031 -8.890625 -0.625 -10.171875 C -0.550781 -11.460938 -0.453125 -12.757812 -0.328125 -14.0625 C -0.210938 -15.363281 -0.175781 -16.597656 -0.21875 -17.765625 C -0.238281 -19.054688 -0.394531 -20.359375 -0.6875 -21.671875 C -0.988281 -22.984375 -1.304688 -24.238281 -1.640625 -25.4375 C -1.742188 -25.925781 -1.921875 -26.617188 -2.171875 -27.515625 C -2.421875 -28.410156 -2.617188 -29.367188 -2.765625 -30.390625 C -2.910156 -31.421875 -2.953125 -32.429688 -2.890625 -33.421875 C -2.828125 -34.410156 -2.570312 -35.253906 -2.125 -35.953125 C -1.675781 -36.648438 -0.953125 -37.078125 0.046875 -37.234375 C 0.679688 -37.328125 1.34375 -37.296875 2.03125 -37.140625 C 2.71875 -36.984375 3.148438 -36.921875 3.328125 -36.953125 C 3.523438 -37.023438 3.757812 -37.144531 4.03125 -37.3125 C 4.3125 -37.476562 4.765625 -37.671875 5.390625 -37.890625 C 6.023438 -38.109375 6.96875 -38.316406 8.21875 -38.515625 C 9.414062 -38.703125 10.679688 -38.675781 12.015625 -38.4375 C 13.359375 -38.195312 14.65625 -37.671875 15.90625 -36.859375 C 17.164062 -36.046875 18.234375 -34.828125 19.109375 -33.203125 C 19.992188 -31.585938 20.566406 -29.476562 20.828125 -26.875 C 21.015625 -25.039062 20.835938 -23.347656 20.296875 -21.796875 C 19.753906 -20.242188 18.65625 -19.035156 17 -18.171875 C 18.09375 -18.054688 19.28125 -17.769531 20.5625 -17.3125 C 21.84375 -16.851562 23.082031 -16.21875 24.28125 -15.40625 C 25.488281 -14.59375 26.492188 -13.578125 27.296875 -12.359375 C 28.097656 -11.140625 28.550781 -9.738281 28.65625 -8.15625 C 28.738281 -6.988281 28.476562 -6.097656 27.875 -5.484375 C 27.269531 -4.867188 26.53125 -4.4375 25.65625 -4.1875 C 24.78125 -3.945312 23.992188 -3.769531 23.296875 -3.65625 C 21.972656 -3.445312 20.910156 -3.445312 20.109375 -3.65625 C 19.304688 -3.875 18.6875 -4.226562 18.25 -4.71875 C 17.820312 -5.207031 17.46875 -5.75 17.1875 -6.34375 C 16.789062 -7.21875 16.253906 -8.21875 15.578125 -9.34375 C 14.898438 -10.46875 14.179688 -11.5625 13.421875 -12.625 C 12.671875 -13.695312 11.984375 -14.566406 11.359375 -15.234375 C 10.742188 -15.898438 10.296875 -16.210938 10.015625 -16.171875 C 9.878906 -16.148438 9.804688 -16.066406 9.796875 -15.921875 C 9.710938 -15.503906 9.835938 -15.0625 10.171875 -14.59375 C 10.515625 -14.132812 10.945312 -13.597656 11.46875 -12.984375 C 12 -12.367188 12.503906 -11.660156 12.984375 -10.859375 C 13.460938 -10.054688 13.789062 -9.117188 13.96875 -8.046875 C 14.15625 -7.078125 14.109375 -6.117188 13.828125 -5.171875 C 13.546875 -4.234375 12.941406 -3.414062 12.015625 -2.71875 C 11.097656 -2.019531 9.726562 -1.523438 7.90625 -1.234375 Z M 8.984375 -33.59375 C 8.546875 -33.488281 8.25 -33.140625 8.09375 -32.546875 C 7.9375 -31.953125 7.898438 -31.257812 7.984375 -30.46875 C 8.066406 -29.6875 8.265625 -28.921875 8.578125 -28.171875 C 8.890625 -27.429688 9.28125 -26.832031 9.75 -26.375 C 10.21875 -25.914062 10.726562 -25.734375 11.28125 -25.828125 C 11.425781 -25.847656 11.550781 -25.878906 11.65625 -25.921875 C 12.5 -26.222656 12.945312 -26.828125 13 -27.734375 C 13.050781 -28.640625 12.878906 -29.5625 12.484375 -30.5 C 12.085938 -31.375 11.570312 -32.132812 10.9375 -32.78125 C 10.300781 -33.425781 9.6875 -33.703125 9.09375 -33.609375 C 9.0625 -33.609375 9.046875 -33.609375 9.046875 -33.609375 C 9.046875 -33.609375 9.023438 -33.601562 8.984375 -33.59375 Z M 8.984375 -33.59375 "/></g></g></g><g fill="#4b5ae4" fill-opacity="1"><g transform="translate(251.100101, 201.914784)"><g><path d="M -0.578125 -6.890625 C -1.941406 -7.941406 -2.914062 -9.164062 -3.5 -10.5625 C -4.082031 -11.96875 -4.210938 -13.320312 -3.890625 -14.625 C -3.578125 -15.9375 -2.703125 -16.945312 -1.265625 -17.65625 C -1.203125 -17.6875 -1.132812 -17.710938 -1.0625 -17.734375 C -1 -17.765625 -0.953125 -17.785156 -0.921875 -17.796875 C -0.203125 -18.078125 0.535156 -18.164062 1.296875 -18.0625 C 2.054688 -17.96875 2.78125 -17.785156 3.46875 -17.515625 C 4.164062 -17.253906 4.78125 -17.03125 5.3125 -16.84375 C 5.84375 -16.65625 6.25 -16.617188 6.53125 -16.734375 C 6.675781 -16.785156 6.78125 -16.878906 6.84375 -17.015625 C 7.09375 -17.640625 6.863281 -18.164062 6.15625 -18.59375 C 5.457031 -19.019531 4.476562 -19.429688 3.21875 -19.828125 C 1.96875 -20.234375 0.632812 -20.71875 -0.78125 -21.28125 C -2.195312 -21.851562 -3.5 -22.570312 -4.6875 -23.4375 C -5.875 -24.300781 -6.726562 -25.382812 -7.25 -26.6875 C -8.3125 -29.425781 -8.164062 -31.929688 -6.8125 -34.203125 C -5.46875 -36.484375 -3.050781 -38.304688 0.4375 -39.671875 C 2.238281 -40.378906 3.789062 -40.679688 5.09375 -40.578125 C 6.40625 -40.484375 7.425781 -40.109375 8.15625 -39.453125 C 8.882812 -38.804688 9.257812 -38.035156 9.28125 -37.140625 C 9.28125 -36.546875 9.085938 -36.054688 8.703125 -35.671875 C 8.328125 -35.285156 7.835938 -34.976562 7.234375 -34.75 C 6.472656 -34.445312 5.625 -34.226562 4.6875 -34.09375 C 3.757812 -33.96875 2.960938 -33.789062 2.296875 -33.5625 C 2.203125 -33.519531 2.113281 -33.484375 2.03125 -33.453125 C 1.945312 -33.421875 1.867188 -33.390625 1.796875 -33.359375 C 0.847656 -32.984375 0.234375 -32.46875 -0.046875 -31.8125 C -0.335938 -31.15625 -0.207031 -30.4375 0.34375 -29.65625 C 0.769531 -29.070312 1.472656 -28.59375 2.453125 -28.21875 C 3.441406 -27.84375 4.59375 -27.492188 5.90625 -27.171875 C 7.21875 -26.847656 8.59375 -26.492188 10.03125 -26.109375 C 11.476562 -25.734375 12.878906 -25.226562 14.234375 -24.59375 C 15.585938 -23.957031 16.800781 -23.160156 17.875 -22.203125 C 18.945312 -21.242188 19.757812 -20.003906 20.3125 -18.484375 C 21.070312 -16.453125 21.238281 -14.566406 20.8125 -12.828125 C 20.394531 -11.085938 19.597656 -9.597656 18.421875 -8.359375 C 17.253906 -7.128906 15.914062 -6.21875 14.40625 -5.625 L 12.625 -4.9375 C 10.925781 -4.269531 9.253906 -3.96875 7.609375 -4.03125 C 5.972656 -4.09375 4.453125 -4.390625 3.046875 -4.921875 C 1.648438 -5.453125 0.441406 -6.109375 -0.578125 -6.890625 Z M -0.578125 -6.890625 "/></g></g></g><g fill="#4b5ae4" fill-opacity="1"><g transform="translate(178.765151, 224.44708)"><g><path d="M 9.71875 0.671875 L 5 3.9375 L 4.265625 3.359375 L 5.90625 -0.875 L 2.1875 1.71875 L 1.453125 1.140625 L 3.484375 -4.234375 L 4.21875 -3.671875 L 2.359375 0.75 L 6.28125 -2.046875 L 7 -1.46875 L 5.21875 2.984375 L 9.03125 0.125 Z M 9.71875 0.671875 "/></g></g></g><g fill="#4b5ae4" fill-opacity="1"><g transform="translate(185.93284, 229.66893)"><g><path d="M 4.03125 -5.09375 C 3.882812 -5.164062 3.785156 -5.285156 3.734375 -5.453125 C 3.679688 -5.617188 3.695312 -5.773438 3.78125 -5.921875 C 3.851562 -6.078125 3.96875 -6.175781 4.125 -6.21875 C 4.289062 -6.269531 4.445312 -6.257812 4.59375 -6.1875 C 4.738281 -6.101562 4.835938 -5.984375 4.890625 -5.828125 C 4.941406 -5.671875 4.929688 -5.515625 4.859375 -5.359375 C 4.773438 -5.210938 4.648438 -5.109375 4.484375 -5.046875 C 4.328125 -4.992188 4.175781 -5.007812 4.03125 -5.09375 Z M 4.015625 -4.09375 L 1.5 0.78125 L 0.6875 0.359375 L 3.203125 -4.515625 Z M 4.015625 -4.09375 "/></g></g></g><g fill="#4b5ae4" fill-opacity="1"><g transform="translate(188.560827, 231.092313)"><g><path d="M 3.609375 1.28125 L 2.40625 -1.71875 L 1.59375 0.5625 L 0.71875 0.25 L 3.203125 -6.734375 L 4.078125 -6.421875 L 2.609375 -2.3125 L 5.421875 -3.890625 L 6.609375 -3.46875 L 3.265625 -1.765625 L 4.765625 1.703125 Z M 3.609375 1.28125 "/></g></g></g><g fill="#4b5ae4" fill-opacity="1"><g transform="translate(193.94002, 232.874251)"><g><path d="M 2.5 -5.984375 C 2.34375 -6.015625 2.21875 -6.101562 2.125 -6.25 C 2.03125 -6.394531 2 -6.550781 2.03125 -6.71875 C 2.070312 -6.882812 2.164062 -7.015625 2.3125 -7.109375 C 2.457031 -7.203125 2.609375 -7.234375 2.765625 -7.203125 C 2.929688 -7.171875 3.0625 -7.082031 3.15625 -6.9375 C 3.25 -6.789062 3.273438 -6.632812 3.234375 -6.46875 C 3.203125 -6.300781 3.113281 -6.171875 2.96875 -6.078125 C 2.820312 -5.984375 2.664062 -5.953125 2.5 -5.984375 Z M 2.78125 -5.03125 L 1.65625 0.34375 L 0.75 0.15625 L 1.875 -5.21875 Z M 2.78125 -5.03125 "/></g></g></g><g fill="#4b5ae4" fill-opacity="1"><g transform="translate(196.933403, 233.627749)"><g><path d="M 1.875 -4.390625 C 2.0625 -4.703125 2.335938 -4.953125 2.703125 -5.140625 C 3.066406 -5.335938 3.488281 -5.425781 3.96875 -5.40625 C 4.445312 -5.382812 4.878906 -5.25 5.265625 -5 C 5.660156 -4.757812 5.960938 -4.421875 6.171875 -3.984375 C 6.378906 -3.546875 6.46875 -3.050781 6.4375 -2.5 C 6.414062 -1.945312 6.285156 -1.457031 6.046875 -1.03125 C 5.804688 -0.601562 5.476562 -0.273438 5.0625 -0.046875 C 4.65625 0.171875 4.210938 0.269531 3.734375 0.25 C 3.265625 0.226562 2.851562 0.101562 2.5 -0.125 C 2.144531 -0.351562 1.890625 -0.625 1.734375 -0.9375 L 1.578125 2.671875 L 0.65625 2.625 L 1 -5.453125 L 1.921875 -5.40625 Z M 5.515625 -2.546875 C 5.535156 -2.953125 5.46875 -3.3125 5.3125 -3.625 C 5.164062 -3.9375 4.953125 -4.175781 4.671875 -4.34375 C 4.390625 -4.519531 4.082031 -4.613281 3.75 -4.625 C 3.414062 -4.644531 3.101562 -4.578125 2.8125 -4.421875 C 2.519531 -4.273438 2.28125 -4.046875 2.09375 -3.734375 C 1.914062 -3.429688 1.816406 -3.078125 1.796875 -2.671875 C 1.785156 -2.253906 1.851562 -1.890625 2 -1.578125 C 2.15625 -1.265625 2.375 -1.019531 2.65625 -0.84375 C 2.9375 -0.664062 3.242188 -0.566406 3.578125 -0.546875 C 3.910156 -0.535156 4.222656 -0.609375 4.515625 -0.765625 C 4.804688 -0.921875 5.039062 -1.148438 5.21875 -1.453125 C 5.40625 -1.753906 5.503906 -2.117188 5.515625 -2.546875 Z M 5.515625 -2.546875 "/></g></g></g><g fill="#4b5ae4" fill-opacity="1"><g transform="translate(204.505417, 233.819305)"><g><path d="M 5.125 -3.984375 C 5.15625 -3.804688 5.175781 -3.617188 5.1875 -3.421875 L 0.875 -2.609375 C 1.007812 -2.085938 1.269531 -1.707031 1.65625 -1.46875 C 2.050781 -1.238281 2.484375 -1.164062 2.953125 -1.25 C 3.347656 -1.320312 3.65625 -1.472656 3.875 -1.703125 C 4.09375 -1.941406 4.234375 -2.21875 4.296875 -2.53125 L 5.25 -2.703125 C 5.195312 -2.171875 4.984375 -1.695312 4.609375 -1.28125 C 4.242188 -0.875 3.738281 -0.609375 3.09375 -0.484375 C 2.582031 -0.390625 2.101562 -0.414062 1.65625 -0.5625 C 1.21875 -0.71875 0.84375 -0.988281 0.53125 -1.375 C 0.226562 -1.757812 0.0234375 -2.226562 -0.078125 -2.78125 C -0.179688 -3.332031 -0.160156 -3.835938 -0.015625 -4.296875 C 0.117188 -4.765625 0.363281 -5.148438 0.71875 -5.453125 C 1.082031 -5.753906 1.523438 -5.953125 2.046875 -6.046875 C 2.566406 -6.148438 3.039062 -6.128906 3.46875 -5.984375 C 3.90625 -5.835938 4.265625 -5.585938 4.546875 -5.234375 C 4.835938 -4.890625 5.03125 -4.472656 5.125 -3.984375 Z M 4.171875 -3.96875 C 4.097656 -4.3125 3.960938 -4.59375 3.765625 -4.8125 C 3.578125 -5.03125 3.335938 -5.179688 3.046875 -5.265625 C 2.765625 -5.347656 2.46875 -5.359375 2.15625 -5.296875 C 1.695312 -5.210938 1.332031 -4.992188 1.0625 -4.640625 C 0.800781 -4.296875 0.703125 -3.859375 0.765625 -3.328125 Z M 4.171875 -3.96875 "/></g></g></g><g fill="#4b5ae4" fill-opacity="1"><g transform="translate(211.392242, 232.452128)"><g><path d="M -0.71875 -2.703125 C -0.9375 -3.203125 -1.03125 -3.691406 -1 -4.171875 C -0.96875 -4.660156 -0.816406 -5.085938 -0.546875 -5.453125 C -0.285156 -5.828125 0.0703125 -6.117188 0.53125 -6.328125 C 0.925781 -6.492188 1.328125 -6.5625 1.734375 -6.53125 C 2.148438 -6.507812 2.507812 -6.382812 2.8125 -6.15625 L 1.625 -8.828125 L 2.46875 -9.203125 L 5.46875 -2.421875 L 4.625 -2.046875 L 4.203125 -2.984375 C 4.179688 -2.617188 4.050781 -2.269531 3.8125 -1.9375 C 3.570312 -1.601562 3.234375 -1.335938 2.796875 -1.140625 C 2.347656 -0.941406 1.894531 -0.875 1.4375 -0.9375 C 0.988281 -1 0.570312 -1.179688 0.1875 -1.484375 C -0.1875 -1.785156 -0.488281 -2.191406 -0.71875 -2.703125 Z M 3.515625 -4.5625 C 3.347656 -4.945312 3.125 -5.242188 2.84375 -5.453125 C 2.570312 -5.671875 2.273438 -5.796875 1.953125 -5.828125 C 1.628906 -5.859375 1.304688 -5.804688 0.984375 -5.671875 C 0.679688 -5.535156 0.4375 -5.335938 0.25 -5.078125 C 0.0625 -4.816406 -0.0390625 -4.507812 -0.0625 -4.15625 C -0.09375 -3.8125 -0.03125 -3.453125 0.125 -3.078125 C 0.300781 -2.679688 0.523438 -2.375 0.796875 -2.15625 C 1.078125 -1.945312 1.378906 -1.820312 1.703125 -1.78125 C 2.023438 -1.75 2.335938 -1.800781 2.640625 -1.9375 C 2.960938 -2.070312 3.21875 -2.269531 3.40625 -2.53125 C 3.59375 -2.800781 3.695312 -3.109375 3.71875 -3.453125 C 3.75 -3.804688 3.679688 -4.175781 3.515625 -4.5625 Z M 3.515625 -4.5625 "/></g></g></g><g fill="#4b5ae4" fill-opacity="1"><g transform="translate(218.026722, 229.272126)"><g><path d="M -2.46875 -6 C -2.601562 -5.914062 -2.753906 -5.890625 -2.921875 -5.921875 C -3.085938 -5.953125 -3.21875 -6.039062 -3.3125 -6.1875 C -3.40625 -6.332031 -3.429688 -6.488281 -3.390625 -6.65625 C -3.359375 -6.820312 -3.273438 -6.945312 -3.140625 -7.03125 C -3.003906 -7.125 -2.847656 -7.15625 -2.671875 -7.125 C -2.503906 -7.09375 -2.375 -7.003906 -2.28125 -6.859375 C -2.1875 -6.710938 -2.160156 -6.554688 -2.203125 -6.390625 C -2.242188 -6.222656 -2.332031 -6.09375 -2.46875 -6 Z M -1.59375 -5.515625 L 1.40625 -0.921875 L 0.640625 -0.421875 L -2.359375 -5.015625 Z M -1.59375 -5.515625 "/></g></g></g><g fill="#4b5ae4" fill-opacity="1"><g transform="translate(220.675152, 227.686813)"><g><path d="M -1.546875 -2.328125 C -1.921875 -2.734375 -2.171875 -3.164062 -2.296875 -3.625 C -2.421875 -4.09375 -2.414062 -4.546875 -2.28125 -4.984375 C -2.144531 -5.429688 -1.894531 -5.816406 -1.53125 -6.140625 C -1.175781 -6.472656 -0.800781 -6.679688 -0.40625 -6.765625 C -0.0078125 -6.859375 0.351562 -6.847656 0.6875 -6.734375 L 0 -7.46875 L 0.6875 -8.078125 L 4.40625 -4.046875 L 3.71875 -3.4375 L 3.03125 -4.1875 C 3.113281 -3.832031 3.097656 -3.457031 2.984375 -3.0625 C 2.867188 -2.664062 2.632812 -2.304688 2.28125 -1.984375 C 1.925781 -1.660156 1.519531 -1.445312 1.0625 -1.34375 C 0.613281 -1.25 0.160156 -1.285156 -0.296875 -1.453125 C -0.753906 -1.628906 -1.171875 -1.921875 -1.546875 -2.328125 Z M 1.859375 -5.453125 C 1.578125 -5.765625 1.269531 -5.972656 0.9375 -6.078125 C 0.613281 -6.191406 0.296875 -6.210938 -0.015625 -6.140625 C -0.335938 -6.066406 -0.625 -5.914062 -0.875 -5.6875 C -1.125 -5.457031 -1.296875 -5.1875 -1.390625 -4.875 C -1.484375 -4.570312 -1.488281 -4.25 -1.40625 -3.90625 C -1.320312 -3.570312 -1.144531 -3.253906 -0.875 -2.953125 C -0.582031 -2.640625 -0.269531 -2.425781 0.0625 -2.3125 C 0.394531 -2.207031 0.71875 -2.1875 1.03125 -2.25 C 1.351562 -2.3125 1.640625 -2.457031 1.890625 -2.6875 C 2.140625 -2.914062 2.3125 -3.1875 2.40625 -3.5 C 2.5 -3.820312 2.5 -4.148438 2.40625 -4.484375 C 2.320312 -4.828125 2.140625 -5.148438 1.859375 -5.453125 Z M 1.859375 -5.453125 "/></g></g></g></svg>