<svg xmlns="http://www.w3.org/2000/svg" xmlns:xlink="http://www.w3.org/1999/xlink" width="500" zoomAndPan="magnify" viewBox="0 0 375 374.999991" height="500" preserveAspectRatio="xMidYMid meet" version="1.0"><defs><clipPath id="4e2409c19b"><path d="M 122 215 L 170 215 L 170 244.6875 L 122 244.6875 Z M 122 215 " clip-rule="nonzero"/></clipPath><clipPath id="49edfdd18f"><path d="M 112.5 161 L 154 161 L 154 163 L 112.5 163 Z M 112.5 161 " clip-rule="nonzero"/></clipPath></defs><path fill="#000000" d="M 167.339844 183.546875 C 167.125 183.25 166.921875 182.929688 166.707031 182.539062 C 166.011719 181.46875 165.3125 180.269531 164.734375 178.96875 L 159.367188 198.652344 L 176.613281 196.371094 Z M 167.339844 183.546875 " fill-opacity="1" fill-rule="nonzero"/><g clip-path="url(#4e2409c19b)"><path fill="#000000" d="M 153.320312 219.820312 C 149.921875 219.820312 146.863281 218.097656 145.027344 215.4375 L 126.140625 229.554688 C 122.4375 232.324219 121.667969 237.582031 124.429688 241.296875 C 126.070312 243.511719 128.59375 244.679688 131.144531 244.679688 C 132.882812 244.679688 134.632812 244.136719 136.136719 243.015625 L 169.59375 218.007812 C 169.722656 217.914062 169.84375 217.808594 169.964844 217.707031 L 154.652344 219.730469 C 154.210938 219.789062 153.761719 219.820312 153.320312 219.820312 Z M 153.320312 219.820312 " fill-opacity="1" fill-rule="nonzero"/></g><path fill="#000000" d="M 253.394531 143.394531 C 253.964844 144.230469 254.449219 145.109375 254.847656 146.039062 C 255.246094 146.96875 255.550781 147.929688 255.761719 148.921875 C 255.972656 149.910156 256.085938 150.910156 256.097656 151.921875 C 256.113281 152.933594 256.027344 153.9375 255.84375 154.933594 C 255.660156 155.929688 255.382812 156.898438 255.007812 157.835938 C 254.636719 158.777344 254.175781 159.671875 253.625 160.523438 C 253.078125 161.371094 252.449219 162.15625 251.746094 162.882812 C 251.042969 163.609375 250.277344 164.257812 249.445312 164.832031 C 248.613281 165.40625 247.734375 165.894531 246.808594 166.292969 C 245.882812 166.691406 244.925781 167 243.9375 167.210938 C 242.953125 167.421875 241.953125 167.53125 240.945312 167.546875 C 239.9375 167.5625 238.9375 167.476562 237.945312 167.292969 C 236.953125 167.109375 235.988281 166.828125 235.050781 166.453125 C 234.113281 166.078125 233.222656 165.617188 232.375 165.066406 C 231.53125 164.515625 230.746094 163.886719 230.023438 163.179688 C 229.296875 162.476562 228.652344 161.707031 228.078125 160.871094 C 227.507812 160.039062 227.023438 159.15625 226.625 158.226562 C 226.226562 157.296875 225.921875 156.335938 225.710938 155.347656 C 225.5 154.355469 225.386719 153.355469 225.375 152.34375 C 225.359375 151.332031 225.445312 150.328125 225.628906 149.332031 C 225.8125 148.339844 226.089844 147.371094 226.460938 146.429688 C 226.835938 145.488281 227.296875 144.59375 227.847656 143.746094 C 228.394531 142.894531 229.019531 142.109375 229.726562 141.382812 C 230.429688 140.660156 231.195312 140.007812 232.027344 139.433594 C 232.859375 138.859375 233.738281 138.375 234.664062 137.972656 C 235.589844 137.574219 236.546875 137.269531 237.535156 137.058594 C 238.519531 136.847656 239.515625 136.734375 240.527344 136.71875 C 241.535156 136.707031 242.535156 136.792969 243.527344 136.976562 C 244.519531 137.160156 245.484375 137.4375 246.421875 137.8125 C 247.359375 138.1875 248.25 138.648438 249.097656 139.199219 C 249.941406 139.75 250.726562 140.378906 251.449219 141.085938 C 252.171875 141.792969 252.820312 142.5625 253.394531 143.394531 Z M 253.394531 143.394531 " fill-opacity="1" fill-rule="nonzero"/><path fill="#000000" d="M 249.902344 192.324219 L 223.921875 179.402344 L 223.449219 160.542969 L 223.324219 155.570312 C 223.378906 154.539062 223.238281 153.511719 222.867188 152.519531 C 220.957031 147.402344 214.691406 142.660156 205.945312 143.945312 L 212.515625 148.296875 C 215.75 150.441406 216.644531 154.824219 214.511719 158.074219 C 213.203125 160.058594 211.007812 161.246094 208.632812 161.246094 C 207.257812 161.246094 205.917969 160.839844 204.765625 160.078125 L 189.035156 149.660156 C 182.472656 152.746094 176.769531 156.734375 169.746094 162.894531 C 162.488281 170.3125 164.804688 176.746094 168.050781 181.726562 C 168.222656 182.03125 168.402344 182.332031 168.613281 182.621094 L 179.433594 197.589844 L 152.214844 201.1875 C 147.539062 201.808594 144.25 206.109375 144.867188 210.800781 C 145.433594 215.109375 149.101562 218.246094 153.320312 218.246094 C 153.691406 218.246094 154.066406 218.21875 154.445312 218.167969 L 195.871094 212.6875 C 198.855469 212.292969 201.40625 210.355469 202.597656 207.582031 C 203.785156 204.808594 203.429688 201.613281 201.664062 199.171875 L 187.644531 179.777344 C 195.714844 174.277344 205.507812 170.414062 212.6875 167.296875 L 212.730469 168.996094 L 213.078125 182.984375 C 213.128906 185.015625 214.296875 186.855469 216.113281 187.757812 L 245.050781 202.144531 C 245.832031 202.53125 246.65625 202.714844 247.472656 202.714844 C 249.480469 202.714844 251.417969 201.597656 252.371094 199.667969 C 253.710938 196.957031 252.605469 193.667969 249.902344 192.324219 Z M 249.902344 192.324219 " fill-opacity="1" fill-rule="nonzero"/><path fill="#000000" d="M 205.628906 158.761719 C 206.558594 159.375 207.601562 159.667969 208.632812 159.667969 C 210.410156 159.667969 212.148438 158.800781 213.199219 157.207031 C 214.863281 154.679688 214.167969 151.28125 211.648438 149.613281 L 188.886719 134.539062 C 187.753906 133.789062 186.382812 133.488281 185.039062 133.699219 L 157.269531 138.039062 C 154.289062 138.503906 152.246094 141.304688 152.710938 144.296875 C 153.175781 147.289062 155.96875 149.335938 158.949219 148.871094 L 184.632812 144.855469 Z M 205.628906 158.761719 " fill-opacity="1" fill-rule="nonzero"/><path fill="#000000" d="M 136.285156 157.253906 L 164.476562 157.253906 L 164.476562 158.65625 L 136.285156 158.65625 Z M 136.285156 157.253906 " fill-opacity="1" fill-rule="nonzero"/><path fill="#000000" d="M 130.410156 165.671875 L 158.601562 165.671875 L 158.601562 167.074219 L 130.410156 167.074219 Z M 130.410156 165.671875 " fill-opacity="1" fill-rule="nonzero"/><g clip-path="url(#49edfdd18f)"><path fill="#000000" d="M 112.867188 161.460938 L 153.316406 161.460938 L 153.316406 162.863281 L 112.867188 162.863281 Z M 112.867188 161.460938 " fill-opacity="1" fill-rule="nonzero"/></g><path fill="#000000" d="M 201.496094 224.050781 L 229.6875 224.050781 L 229.6875 225.453125 L 201.496094 225.453125 Z M 201.496094 224.050781 " fill-opacity="1" fill-rule="nonzero"/><path fill="#000000" d="M 195.625 232.46875 L 223.816406 232.46875 L 223.816406 233.871094 L 195.625 233.871094 Z M 195.625 232.46875 " fill-opacity="1" fill-rule="nonzero"/><path fill="#000000" d="M 178.078125 228.257812 L 218.527344 228.257812 L 218.527344 229.660156 L 178.078125 229.660156 Z M 178.078125 228.257812 " fill-opacity="1" fill-rule="nonzero"/></svg>